<mxfile host="app.diagrams.net" modified="2023-12-06T00:20:12.886Z" agent="Mozilla/5.0 (Macintosh; Intel Mac OS X 10_15_7) AppleWebKit/537.36 (KHTML, like Gecko) Chrome/119.0.0.0 Safari/537.36" etag="WbA6m1UyfbzpEtlia6fp" version="22.1.5" type="device">
  <diagram name="Trang-1" id="07l9hVh62isLkJm_6zO_">
    <mxGraphModel dx="1053" dy="687" grid="1" gridSize="10" guides="1" tooltips="1" connect="1" arrows="1" fold="1" page="1" pageScale="1" pageWidth="827" pageHeight="1169" math="0" shadow="0">
      <root>
        <mxCell id="0" />
        <mxCell id="1" parent="0" />
        <mxCell id="SEoROlNDeNdJjWkgj390-7" style="edgeStyle=orthogonalEdgeStyle;rounded=0;orthogonalLoop=1;jettySize=auto;html=1;entryX=0.5;entryY=0;entryDx=0;entryDy=0;" edge="1" parent="1" source="SEoROlNDeNdJjWkgj390-1" target="SEoROlNDeNdJjWkgj390-2">
          <mxGeometry relative="1" as="geometry" />
        </mxCell>
        <mxCell id="SEoROlNDeNdJjWkgj390-1" value="Start" style="ellipse;whiteSpace=wrap;html=1;" vertex="1" parent="1">
          <mxGeometry x="210" y="30" width="120" height="80" as="geometry" />
        </mxCell>
        <mxCell id="SEoROlNDeNdJjWkgj390-8" style="edgeStyle=orthogonalEdgeStyle;rounded=0;orthogonalLoop=1;jettySize=auto;html=1;entryX=0.5;entryY=0;entryDx=0;entryDy=0;" edge="1" parent="1" source="SEoROlNDeNdJjWkgj390-2" target="SEoROlNDeNdJjWkgj390-3">
          <mxGeometry relative="1" as="geometry" />
        </mxCell>
        <mxCell id="SEoROlNDeNdJjWkgj390-2" value="fopen để mở file dưới dạng r" style="rounded=0;whiteSpace=wrap;html=1;" vertex="1" parent="1">
          <mxGeometry x="210" y="170" width="120" height="60" as="geometry" />
        </mxCell>
        <mxCell id="SEoROlNDeNdJjWkgj390-9" style="edgeStyle=orthogonalEdgeStyle;rounded=0;orthogonalLoop=1;jettySize=auto;html=1;entryX=0.5;entryY=0;entryDx=0;entryDy=0;" edge="1" parent="1" source="SEoROlNDeNdJjWkgj390-3" target="SEoROlNDeNdJjWkgj390-4">
          <mxGeometry relative="1" as="geometry" />
        </mxCell>
        <mxCell id="SEoROlNDeNdJjWkgj390-3" value="fread để đọc toàn bộ thông tin vào file" style="rounded=0;whiteSpace=wrap;html=1;" vertex="1" parent="1">
          <mxGeometry x="210" y="280" width="120" height="60" as="geometry" />
        </mxCell>
        <mxCell id="SEoROlNDeNdJjWkgj390-10" style="edgeStyle=orthogonalEdgeStyle;rounded=0;orthogonalLoop=1;jettySize=auto;html=1;entryX=0.5;entryY=0;entryDx=0;entryDy=0;" edge="1" parent="1" source="SEoROlNDeNdJjWkgj390-4" target="SEoROlNDeNdJjWkgj390-5">
          <mxGeometry relative="1" as="geometry" />
        </mxCell>
        <mxCell id="SEoROlNDeNdJjWkgj390-4" value="printf để in ra màn hình toàn bộ thông tin" style="rounded=0;whiteSpace=wrap;html=1;" vertex="1" parent="1">
          <mxGeometry x="210" y="380" width="120" height="60" as="geometry" />
        </mxCell>
        <mxCell id="SEoROlNDeNdJjWkgj390-11" style="edgeStyle=orthogonalEdgeStyle;rounded=0;orthogonalLoop=1;jettySize=auto;html=1;" edge="1" parent="1" source="SEoROlNDeNdJjWkgj390-5">
          <mxGeometry relative="1" as="geometry">
            <mxPoint x="270" y="580" as="targetPoint" />
          </mxGeometry>
        </mxCell>
        <mxCell id="SEoROlNDeNdJjWkgj390-5" value="fclose để đóng file" style="rounded=0;whiteSpace=wrap;html=1;" vertex="1" parent="1">
          <mxGeometry x="210" y="480" width="120" height="60" as="geometry" />
        </mxCell>
        <mxCell id="SEoROlNDeNdJjWkgj390-6" value="End" style="ellipse;whiteSpace=wrap;html=1;" vertex="1" parent="1">
          <mxGeometry x="210" y="585" width="120" height="80" as="geometry" />
        </mxCell>
      </root>
    </mxGraphModel>
  </diagram>
</mxfile>
